# xmcd CD database file
#
# Track frame offsets:
#	182
#	10432
#	20707
#	37370
#	48707
#	59957
#	70932
#	82757
#	94120
#	105620
#	117595
#	131532
#	145132
#	158095
#	166732
#	179332
#	194457
#	206232
#	218320
#	229257
#
# Disc length: 3217 seconds
#
# Revision: 1
# Processed by: cddbd v1.5.2PL0 Copyright (c) Steve Scherf et al.
# Submitted via: CDex 1.70beta2
#
DISCID=290c8f14
DTITLE=Bygraves , Max - The Best Of Max Bygraves - The Best Of Max Bygraves
DYEAR=2000
DGENRE=50's
TTITLE0=Tulips From Amsterdam (Arine-Martyn-Bader) (1959)
TTITLE1=Fings Ain't Wot They Used To Be (Bart) (1960)
TTITLE2=Gilly Gilly Ossenfeffer Katzenellen Bogen-By The Sea (Hoffman-Manning) (1959)
TTITLE3=Heart (Adler-Ross) (1957)
TTITLE4=You're A Pink Toothbrush (Donaldson) (1959)
TTITLE5=Consider Yourself (Bart) (1960)
TTITLE6=Underneath The Arches (Flanagan) (1960)
TTITLE7=In A Shanty In Old Shanty Town (Siras-Little-Young) (1957)
TTITLE8=Is It True What They Say About Dixie (Caesar) (1960)
TTITLE9=When You Come To The End Of A Lollipop (Hoffman-Manning) (1960)
TTITLE10=Over The Rainbow (Arlen-Hamburg) (1959)
TTITLE11=Riders In The Sky (Jones) (1959)
TTITLE12=Oh Mein Papa (Burkhard-Parsons-Turner) (1960)
TTITLE13=Little Train (Andre-Storz) (1958)
TTITLE14=Every Street's A Coronation Street (Greaves) (1962)
TTITLE15=The Bells Of Avignon (Ignor-Gaze-Lewis) (1961)
TTITLE16=Gotta Have Rain (Bygraves) (1958)
TTITLE17=I Love To Play (My Ukelele) (Irwin) (1958)
TTITLE18=Jingle Bell Rock (Beal-Boothe) (1959)
TTITLE19=You Need Hands (Irwin) (1958)
EXTD=YEAR: 2000
EXTT0=
EXTT1=
EXTT2=
EXTT3=
EXTT4=
EXTT5=
EXTT6=
EXTT7=
EXTT8=
EXTT9=
EXTT10=
EXTT11=
EXTT12=
EXTT13=
EXTT14=
EXTT15=
EXTT16=
EXTT17=
EXTT18=
EXTT19=
PLAYORDER=
